<svg width="100" height="100" viewBox="0 0 100 100" fill="none" xmlns="http://www.w3.org/2000/svg">
<path d="M84.7713 100H15.2287C11.1913 99.996 7.3206 98.6815 4.46571 96.3447C1.61082 94.0079 0.0048256 90.8396 0 87.5348V12.4652C0.0048256 9.16042 1.61082 5.99215 4.46571 3.65533C7.3206 1.31851 11.1913 0.0039503 15.2287 3.83013e-07H60.8449C61.4436 -0.000221664 62.0365 0.0961055 62.5898 0.28348C63.143 0.470854 63.6458 0.745605 64.0693 1.09204L98.6658 29.4204C99.0891 29.7671 99.4247 30.1786 99.6537 30.6314C99.8826 31.0843 100 31.5696 100 32.0597V87.5323C99.996 90.8375 98.3903 94.0064 95.5354 96.3438C92.6804 98.6811 88.8092 99.996 84.7713 100ZM15.2287 7.46269C13.6083 7.464 12.0547 7.99147 10.909 8.92933C9.76317 9.8672 9.11876 11.1388 9.11716 12.4652V87.5348C9.11876 88.8612 9.76317 90.1328 10.909 91.0707C12.0547 92.0085 13.6083 92.536 15.2287 92.5373H84.7713C86.3917 92.536 87.9452 92.0085 89.091 91.0707C90.2368 90.1328 90.8812 88.8612 90.8828 87.5348V33.6045L58.9454 7.46269H15.2287Z" fill="#767676"/>
<path d="M95.4415 35.791H71.5029C67.4654 35.7871 63.5948 34.4725 60.7399 32.1357C57.885 29.7989 56.279 26.6306 56.2742 23.3259V3.73134C56.2742 2.74173 56.7544 1.79265 57.6093 1.09289C58.4642 0.393123 59.6237 0 60.8327 0C62.0418 0 63.2012 0.393123 64.0561 1.09289C64.911 1.79265 65.3913 2.74173 65.3913 3.73134V23.3259C65.3929 24.6522 66.0373 25.9238 67.1831 26.8617C68.3289 27.7996 69.8825 28.327 71.5029 28.3284H95.4415C96.6505 28.3284 97.81 28.7215 98.6649 29.4212C99.5198 30.121 100 31.0701 100 32.0597C100 33.0493 99.5198 33.9984 98.6649 34.6982C97.81 35.3979 96.6505 35.791 95.4415 35.791Z" fill="#767676"/>
<path d="M66.5401 62.7986C65.9415 62.7992 65.3486 62.7028 64.7957 62.515C64.2428 62.3271 63.7408 62.0515 63.3187 61.704L49.9955 50.7986L36.6693 61.704C36.2488 62.0604 35.7458 62.3447 35.1896 62.5402C34.6334 62.7358 34.0353 62.8387 33.43 62.843C32.8247 62.8473 32.2244 62.7529 31.6642 62.5653C31.104 62.3777 30.595 62.1006 30.167 61.7503C29.7389 61.3999 29.4005 60.9833 29.1712 60.5248C28.942 60.0662 28.8267 59.5748 28.832 59.0794C28.8372 58.584 28.963 58.0943 29.2019 57.6391C29.4408 57.1838 29.7881 56.7721 30.2235 56.4279L46.7711 42.8831C47.626 42.1836 48.7852 41.7906 49.994 41.7906C51.2028 41.7906 52.3621 42.1836 53.2169 42.8831L69.7646 56.4279C70.4025 56.9498 70.837 57.6148 71.0131 58.3388C71.1891 59.0628 71.0989 59.8133 70.7537 60.4954C70.4085 61.1774 69.8239 61.7603 69.0738 62.1703C68.3238 62.5802 67.442 62.7989 66.5401 62.7986Z" fill="#767676"/>
<path d="M49.9953 81.3432C48.7863 81.3432 47.6268 80.9501 46.7719 80.2504C45.917 79.5506 45.4368 78.6015 45.4368 77.6119V48.0099C45.4368 47.0203 45.917 46.0712 46.7719 45.3715C47.6268 44.6717 48.7863 44.2786 49.9953 44.2786C51.2044 44.2786 52.3638 44.6717 53.2187 45.3715C54.0736 46.0712 54.5539 47.0203 54.5539 48.0099V77.6119C54.5539 78.6015 54.0736 79.5506 53.2187 80.2504C52.3638 80.9501 51.2044 81.3432 49.9953 81.3432Z" fill="#767676"/>
</svg>
