<svg width="25" height="19" viewBox="0 0 25 19" fill="none" xmlns="http://www.w3.org/2000/svg">
<path d="M20.8333 0H4.16667C1.875 0 0 1.875 0 4.16667V14.5833C0 16.875 1.875 18.75 4.16667 18.75H20.8333C23.125 18.75 25 16.875 25 14.5833V4.16667C25 1.875 23.125 0 20.8333 0ZM22.5 6.04167L14.2708 11.5625C13.75 11.875 13.125 12.0833 12.5 12.0833C11.875 12.0833 11.25 11.875 10.7292 11.5625L2.5 6.04167C2.08333 5.72917 1.97917 5.10417 2.29167 4.58333C2.60417 4.16667 3.22917 4.0625 3.75 4.375L11.9792 9.89583C12.2917 10.1042 12.8125 10.1042 13.125 9.89583L21.3542 4.375C21.875 4.0625 22.5 4.16667 22.8125 4.6875C23.0208 5.10417 22.9167 5.72917 22.5 6.04167Z" fill="white"/>
</svg>
