<svg width="25" height="25" viewBox="0 0 25 25" fill="none" xmlns="http://www.w3.org/2000/svg">
<path d="M12.5 14.5834C15.3765 14.5834 17.7084 11.7852 17.7084 8.33337C17.7084 4.88159 15.3765 2.08337 12.5 2.08337C9.62354 2.08337 7.29169 4.88159 7.29169 8.33337C7.29169 11.7852 9.62354 14.5834 12.5 14.5834Z" fill="white"/>
<path d="M22.7083 19.8959C21.7708 18.0209 20 16.4584 17.7083 15.5209C17.0833 15.3126 16.3542 15.3126 15.8333 15.6251C14.7917 16.2501 13.75 16.5626 12.5 16.5626C11.25 16.5626 10.2083 16.2501 9.16667 15.6251C8.64584 15.4168 7.91667 15.3126 7.29167 15.6251C5 16.5626 3.22917 18.1251 2.29167 20.0001C1.5625 21.3543 2.70834 22.9168 4.27084 22.9168H20.7292C22.2917 22.9168 23.4375 21.3543 22.7083 19.8959Z" fill="white"/>
</svg>
