<svg width="25" height="25" viewBox="0 0 25 25" fill="none" xmlns="http://www.w3.org/2000/svg">
<g clip-path="url(#clip0_55_43)">
<path d="M12.1688 7.23926L4.16665 14.6538V22.6562C4.16665 22.8635 4.23981 23.0622 4.37004 23.2087C4.50028 23.3552 4.67691 23.4375 4.86109 23.4375L9.72481 23.4233C9.90838 23.4223 10.0841 23.3395 10.2136 23.1931C10.3431 23.0467 10.4158 22.8486 10.4158 22.6421V17.9688C10.4158 17.7616 10.4889 17.5628 10.6192 17.4163C10.7494 17.2698 10.926 17.1875 11.1102 17.1875H13.888C14.0722 17.1875 14.2488 17.2698 14.379 17.4163C14.5093 17.5628 14.5824 17.7616 14.5824 17.9688V22.6387C14.5822 22.7415 14.5999 22.8433 14.6347 22.9384C14.6695 23.0335 14.7206 23.1199 14.7851 23.1927C14.8496 23.2655 14.9262 23.3232 15.0106 23.3627C15.095 23.4021 15.1855 23.4224 15.2769 23.4224L20.1389 23.4375C20.323 23.4375 20.4997 23.3552 20.6299 23.2087C20.7601 23.0622 20.8333 22.8635 20.8333 22.6562V14.6484L12.8329 7.23926C12.7388 7.15397 12.6217 7.10746 12.5008 7.10746C12.38 7.10746 12.2629 7.15397 12.1688 7.23926ZM24.809 12.2788L21.1805 8.91406V2.15088C21.1805 1.99548 21.1257 1.84644 21.028 1.73656C20.9303 1.62667 20.7978 1.56494 20.6597 1.56494H18.2291C18.091 1.56494 17.9585 1.62667 17.8609 1.73656C17.7632 1.84644 17.7083 1.99548 17.7083 2.15088V5.69629L13.8225 2.09961C13.4496 1.75438 12.9816 1.56563 12.4987 1.56563C12.0157 1.56563 11.5478 1.75438 11.1749 2.09961L0.188347 12.2788C0.135607 12.3278 0.0919735 12.3881 0.0599388 12.4561C0.0279041 12.5241 0.00809631 12.5986 0.00164726 12.6752C-0.00480179 12.7519 0.00223428 12.8292 0.0223534 12.9027C0.0424726 12.9763 0.0752806 13.0447 0.118903 13.104L1.22567 14.6177C1.26918 14.6772 1.32269 14.7265 1.38314 14.7627C1.44359 14.7989 1.5098 14.8213 1.57797 14.8287C1.64614 14.8361 1.71494 14.8283 1.78043 14.8058C1.84592 14.7832 1.90681 14.7463 1.95961 14.6973L12.1688 5.2373C12.2629 5.15201 12.38 5.1055 12.5008 5.1055C12.6217 5.1055 12.7388 5.15201 12.8329 5.2373L23.0425 14.6973C23.0952 14.7463 23.156 14.7832 23.2214 14.8059C23.2868 14.8285 23.3555 14.8364 23.4237 14.8292C23.4918 14.8219 23.558 14.7996 23.6184 14.7636C23.6789 14.7276 23.7324 14.6785 23.776 14.6191L24.8828 13.1055C24.9264 13.0458 24.959 12.9771 24.9789 12.9032C24.9988 12.8293 25.0055 12.7517 24.9987 12.6749C24.9918 12.5981 24.9715 12.5235 24.939 12.4556C24.9064 12.3876 24.8623 12.3275 24.809 12.2788Z" fill="white"/>
</g>
<defs>
<clipPath id="clip0_55_43">
<rect width="25" height="25" fill="white"/>
</clipPath>
</defs>
</svg>
